<svg width="82" height="82" viewBox="0 0 82 82" xmlns="http://www.w3.org/2000/svg">
  <!-- Background com bordas arredondadas -->
  <rect x="6" y="6" width="70" height="70" rx="16" ry="16" fill="#4285F4"/>
  
  <!-- Calend치rio base -->
  <rect x="20" y="24" width="42" height="38" rx="3" ry="3" fill="white"/>
  
  <!-- Espirais do calend치rio -->
  <rect x="26" y="16" width="4" height="12" rx="2" ry="2" fill="white"/>
  <rect x="52" y="16" width="4" height="12" rx="2" ry="2" fill="white"/>
  
  <!-- Header do calend치rio -->
  <rect x="20" y="24" width="42" height="8" rx="3" ry="3" fill="#34A853"/>
  
  <!-- Grade do calend치rio -->
  <g fill="#4285F4">
    <!-- Linha 1 -->
    <circle cx="28" cy="38" r="1.5"/>
    <circle cx="34" cy="38" r="1.5"/>
    <circle cx="40" cy="38" r="1.5"/>
    <circle cx="46" cy="38" r="1.5"/>
    <circle cx="52" cy="38" r="1.5"/>
    
    <!-- Linha 2 -->
    <circle cx="28" cy="44" r="1.5"/>
    <circle cx="34" cy="44" r="1.5"/>
    <circle cx="40" cy="44" r="1.5"/>
    <circle cx="46" cy="44" r="1.5"/>
    <circle cx="52" cy="44" r="1.5"/>
    
    <!-- Linha 3 -->
    <circle cx="28" cy="50" r="1.5"/>
    <circle cx="34" cy="50" r="1.5"/>
    <circle cx="40" cy="50" r="1.5"/>
    <circle cx="46" cy="50" r="1.5"/>
    <circle cx="52" cy="50" r="1.5"/>
    
    <!-- Linha 4 -->
    <circle cx="28" cy="56" r="1.5"/>
    <circle cx="34" cy="56" r="1.5"/>
    <circle cx="40" cy="56" r="1.5"/>
  </g>
  
  <!-- Destaque do dia atual -->
  <circle cx="40" cy="44" r="3" fill="#EA4335"/>
</svg>