<?xml version="1.0" encoding="UTF-8" standalone="no"?>
<svg
   xmlns:dc="http://purl.org/dc/elements/1.1/"
   xmlns:cc="http://creativecommons.org/ns#"
   xmlns:rdf="http://www.w3.org/1999/02/22-rdf-syntax-ns#"
   xmlns:svg="http://www.w3.org/2000/svg"
   xmlns="http://www.w3.org/2000/svg"
   xmlns:xlink="http://www.w3.org/1999/xlink"
   xmlns:sodipodi="http://sodipodi.sourceforge.net/DTD/sodipodi-0.dtd"
   xmlns:inkscape="http://www.inkscape.org/namespaces/inkscape"
   version="1.1"
   width="1190.5511"
   height="841.88977"
   id="svg48"
   viewBox="0 0 1190.5511 841.88977"
   sodipodi:docname="Logo-A3-PC.svg"
   inkscape:version="0.92.2 (5c3e80d, 2017-08-06)">
  <metadata
     id="metadata54">
    <rdf:RDF>
      <cc:Work
         rdf:about="">
        <dc:format>image/svg+xml</dc:format>
        <dc:type
           rdf:resource="http://purl.org/dc/dcmitype/StillImage" />
        <dc:title></dc:title>
      </cc:Work>
    </rdf:RDF>
  </metadata>
  <defs
     id="defs52">
    <defs
       id="defs22">
      <linearGradient
         id="grad1">
        <stop
           id="stop16"
           stop-opacity="1.0000"
           stop-color="#1eacd6"
           offset="0%" />
        <stop
           id="stop18"
           stop-opacity="1.0000"
           stop-color="#dff2fb"
           offset="100%" />
      </linearGradient>
      <linearGradient
         gradientUnits="userSpaceOnUse"
         gradientTransform="matrix(1.0014272,0,0,0.99857487,3.924894,-9.8122351)"
         y2="785.95135"
         x2="272.11887"
         y1="142.24513"
         x1="272.11887"
         id="grad2"
         xlink:href="#grad1" />
    </defs>
    <defs
       id="defs32">
      <linearGradient
         id="grad3">
        <stop
           id="stop26"
           stop-opacity="1.0000"
           stop-color="#008bd0"
           offset="0%" />
        <stop
           id="stop28"
           stop-opacity="1.0000"
           stop-color="#9edbf4"
           offset="100%" />
      </linearGradient>
      <linearGradient
         gradientUnits="userSpaceOnUse"
         gradientTransform="matrix(1.0014273,0,0,0.99857477,5.8752704,-5.7628879)"
         y2="783.86157"
         x2="269.19131"
         y1="140.1553"
         x1="269.19131"
         id="grad4"
         xlink:href="#grad3" />
    </defs>
    <defs
       id="defs43">
      <linearGradient
         id="grad5">
        <stop
           id="stop37"
           stop-opacity="1.0000"
           stop-color="#008bd0"
           offset="0%" />
        <stop
           id="stop39"
           stop-opacity="1.0000"
           stop-color="#9edbf4"
           offset="100%" />
      </linearGradient>
      <linearGradient
         gradientUnits="userSpaceOnUse"
         gradientTransform="matrix(1.5997354,0,0,0.62510337,3.924894,-9.8122351)"
         y2="561.26617"
         x2="121.77345"
         y1="56.209263"
         x1="121.77345"
         id="grad6"
         xlink:href="#grad5" />
    </defs>
  </defs>
  <sodipodi:namedview
     pagecolor="#ffffff"
     bordercolor="#666666"
     borderopacity="1"
     objecttolerance="10"
     gridtolerance="10"
     guidetolerance="10"
     inkscape:pageopacity="0"
     inkscape:pageshadow="2"
     inkscape:window-width="1920"
     inkscape:window-height="1027"
     id="namedview50"
     showgrid="false"
     inkscape:zoom="1.0191358"
     inkscape:cx="595.27557"
     inkscape:cy="381.69594"
     inkscape:window-x="1912"
     inkscape:window-y="-8"
     inkscape:window-maximized="1"
     inkscape:current-layer="svg48" />
  <path
     inkscape:connector-curvature="0"
     id="path10"
     style="fill:none"
     d="M 619.02729,54.397365 A 391.3801,377.4363 0 0 1 1010.4074,431.83366 391.3801,377.4363 0 1 1 619.02729,54.397365 Z" />
  <path
     inkscape:connector-curvature="0"
     id="path12"
     style="fill:none"
     d="m 254.05879,135.53436 h 663.8968 v 662.0429 h -663.8968 z" />
  <path
     inkscape:connector-curvature="0"
     id="path34"
     style="fill:url(#grad4)"
     d="m 514.55177,424.23561 c 8.6121,-17.8104 23.8246,-30.7436 47.3895,-34.7934 4.8688,-0.8382 10.0173,-1.2718 15.4515,-1.2718 17.255,0 31.1581,4.1655 42.1131,11.5266 11.7718,7.9104 19.7726,19.8391 24.6283,33.9721 4.5111,13.1293 6.5459,28.4445 6.5459,44.2177 0,0.6559 -0.005,1.3109 -0.0115,1.969 18.5705,-36.1143 33.6175,-84.8813 32.5357,-147.4197 -0.4589,-26.5253 -4.4076,-45.8611 -10.6172,-59.6026 -4.8565,-10.7466 -10.7144,-17.5683 -17.0359,-21.4511 -3.4108,-2.0954 -6.5175,-2.9159 -9.2541,-2.8692 -5.4818,0.095 -12.1288,2.1651 -18.644,5.1094 -5.5323,2.4991 -10.9122,5.2526 -15.1029,7.3971 -13.6442,6.9803 -19.6094,10.1168 -35.1559,10.1168 -15.5465,0 -21.5162,-3.1365 -35.1619,-10.1176 -10.6877,-5.471 -22.6755,-12.2919 -34.949,-12.5034 -3.9778,-0.0682 -8.2467,1.1324 -12.8344,3.62 -26.4379,14.3391 -37.4711,58.8043 -37.8419,80.3006 -2.4317,79.2709 16.4674,168.6885 69.4628,228.2535 46.0457,54.7683 121.7916,79.9421 191.5907,63.6371 90.4512,-21.1301 153.106,-121.2967 156.2403,-210.1344 4.226,-119.7674 -59.4011,-204.5737 -167.3225,-241.0097 -66.0603,-20.7739 -130.8428,-19.5711 -180.9192,-2.6233 -195.8558,66.2841 -243.4751,323.87 -132.1835,468.7017 48.6897,63.3643 141.0386,105.3442 222.7741,112.7029 183.8995,16.5563 263.198,-85.8727 260.174,-60.0032 -90.0443,61.2513 -176.4005,89.6589 -273.7339,84.4055 -107.1491,-5.7836 -206.4783,-43.6178 -262.9075,-122.4221 -127.3852,-177.8945 -61.7248,-427.9401 162.7134,-503.6231 69.1134,-20.826 145.5312,-23.1167 227.9647,2.8056 118.4903,38.4349 194.1006,128.4693 189.4088,261.4319 -3.7028,104.9787 -79.4425,206.8729 -183.1747,231.1052 -90.6006,25.4825 -193.8608,-0.9723 -252.8221,-75.7252 -55.5474,-64.0255 -73.4666,-152.8134 -71.0893,-234.8263 0.5164,-29.9131 10.4969,-73.6727 46.831,-98.2704 14.7505,-8.7385 31.8071,-12.069 49.1049,-11.7702 17.8917,0.3088 34.8395,4.7693 48.7594,11.06 8.6643,3.9158 13.4948,6.3866 17.255,8.3111 4.0751,2.0839 1.2205,2.0954 5.3155,8e-4 3.7617,-1.9246 8.5846,-4.3938 17.2573,-8.3119 13.9376,-6.2984 30.3138,-10.7642 47.5535,-11.0623 16.4245,-0.2834 32.2721,2.9313 45.8863,11.2937 10.7045,6.5742 19.9488,16.6367 26.5529,31.2501 6.9673,15.4177 11.3864,36.4559 11.8736,64.6391 2.8608,165.3282 -105.4996,241.6411 -105.8107,241.8655 -17.327,12.4965 -51.2731,5.5124 -40.4912,-10.5313 13.199,-19.6415 21.8411,-53.7692 21.8411,-85.6996 0,-14.5589 -1.8119,-28.5003 -5.8273,-40.1878 -3.6705,-10.683 -8.8795,-19.1366 -15.8299,-23.807 -2.1644,-1.4541 -4.0912,-2.2777 -5.6618,-2.2777 -0.2927,0 -0.5968,0.0283 -0.9071,0.0812 -6.657,1.1438 -18.4992,2.0203 -23.391,12.1372 -36.3518,44.7287 -4.3241,120.7036 -19.1926,110.1692 -22.4203,-19.0109 -30.6279,-86.4457 -19.3503,-109.7663 z" />
  <g
     id="Layer1001"
     transform="translate(3.924894,-9.8122351)" />
  <path
     inkscape:connector-curvature="0"
     id="path45"
     style="fill:url(#grad6)"
     d="m 267.89159,301.01906 -34.3133,-15.2112 -4.2578,9.6038 c -2.8544,6.4402 -3.5282,11.6114 -2.0404,15.5083 1.5137,3.8861 5.4106,7.2314 11.6979,10.0182 6.0973,2.7034 10.9723,3.3822 14.6029,2.0285 3.6515,-1.3447 6.811,-5.028 9.4885,-11.0677 z m 19.9271,-10.1335 -13.5395,30.5426 c -4.0878,9.2211 -10.0053,15.2162 -17.7316,17.9911 -7.7194,2.756 -16.4317,1.9947 -26.1487,-2.3128 -3.9825,-1.7661 -7.4044,-3.9218 -10.2578,-6.485 -2.8514,-2.5642 -5.1552,-5.5458 -6.9471,-8.9617 -2.1577,-4.0789 -3.1347,-8.2511 -2.9339,-12.5615 0.1928,-4.2926 1.6051,-9.4339 4.2657,-15.4349 l 6.0387,-13.6229 -21.8343,-9.6793 7.0266,-15.8533 z m 19.3447,-31.7999 c -6.2385,8.9389 -13.2343,14.1209 -21.0064,15.5342 -7.7542,1.4252 -16.0858,-0.9829 -24.9571,-7.1728 -8.8872,-6.2027 -13.9947,-13.1966 -15.3662,-20.9905 -1.3437,-7.7989 1.0893,-16.1653 7.3029,-25.0704 l 14.5384,-20.8335 11.2635,7.8595 -13.1787,18.8855 c -3.6018,5.1622 -5.3003,9.1615 -5.0827,11.9812 0.2296,2.8037 2.2104,5.6094 5.9613,8.429 l 22.4684,-32.1994 11.2635,7.8585 -22.4694,32.2004 c 3.9755,2.5711 7.2274,3.5193 9.8025,2.8514 2.5642,-0.652 5.7396,-3.6713 9.4955,-9.0551 l 13.2383,-18.971 11.2636,7.8595 z m -25.8028,-75.4 23.1134,-23.189 c 6.975,-6.9968 13.2761,-10.69 18.9054,-11.0538 5.6283,-0.3628 11.4981,2.4867 17.6084,8.5781 l 29.5816,29.4852 -12.2852,12.3249 -28.0749,-27.9844 c -3.4835,-3.4726 -6.2862,-5.177 -8.4091,-5.1442 -2.107,0.0477 -4.7865,1.7025 -8.0375,4.9653 l -9.8721,9.904 36.4134,36.2971 -12.2842,12.325 z m 52.1643,-51.7677 10.1653,-6.8806 -13.3875,-19.779 14.4111,-9.753795 13.3875,19.777995 15.2231,-10.3035 7.3596,10.873 -15.2221,10.3034 14.918,22.0411 c 2.7331,4.0381 5.3281,6.3836 7.7721,7.0197 2.4439,0.6371 5.3857,-0.2226 8.8196,-2.5483 l 5.9204,-4.0063 7.3597,10.874 -13.1509,8.9011 c -5.3163,3.5988 -10.3989,4.8997 -15.2271,3.8641 -4.8292,-1.0346 -9.1059,-4.3054 -12.821,-9.7936 l -18.0019,-26.5959 -10.1663,6.8805 z m 56.8871,-46.091795 -15.6346,9.4289 -8.4489,-14.0106 15.6346,-9.4279 z m 37.8963,62.839495 -15.6346,9.4278 -34.0212,-56.414 15.6336,-9.427895 z m 0.6361,-18.642 34.2229,-13.2006 c 3.0333,-1.1698 5.0697,-2.4917 6.0825,-3.9775 1.0128,-1.4848 1.127,-3.2718 0.318,-5.3709 -0.803,-2.0811 -2.095,-3.3473 -3.8621,-3.7598 -1.795,-0.4254 -4.1803,-0.0636 -7.1738,1.0923 l -14.0195,5.4076 c -8.3028,3.2023 -14.4102,4.1057 -18.329,2.6904 -3.8999,-1.4212 -7.1052,-5.3907 -9.6097,-11.8837 -2.5503,-6.612195 -2.6566,-12.154995 -0.337,-16.624395 2.3396,-4.4764 7.2026,-8.1389 14.6109,-10.9972 l 34.865,-13.4481 4.9425,12.814 -28.6612,11.0558 c -4.6672,1.7999 -7.5425,3.3782 -8.6477,4.7428 -1.0843,1.3566 -1.2224,3.0849 -0.4204,5.1661 0.7355,1.9052 1.8983,3.0661 3.4676,3.4865 1.5902,0.4144 3.7072,0.1123 6.3519,-0.9074 l 14.6993,-5.67 c 6.7285,-2.595 12.4691,-3.0005 17.1969,-1.2285 4.7458,1.7661 8.2631,5.6144 10.543,11.524995 2.1975,5.6978 2.4082,10.9335 0.657,15.718 -1.7572,4.7656 -5.1125,8.115 -10.051,10.0202 l -41.9036,16.1643 z m 46.5926,-74.713295 11.9563,-2.7818 -5.4106,-23.2625 16.9494,-3.9417 5.4107,23.2625 17.9035,-4.1643 2.9747,12.7891 -17.9036,4.1643 6.0288,25.9222 c 1.1042,4.7497 2.6865,7.8694 4.7408,9.3394 2.0523,1.4699 5.1075,1.7213 9.1466,0.7821 l 6.962,-1.619 2.9747,12.789195 -15.4666,3.5968 c -6.2525,1.454 -11.4653,0.8477 -15.6018,-1.8496 -4.1365,-2.6964 -6.9571,-7.2821 -8.4588,-13.738295 l -7.2762,-31.2801 -11.9562,2.7799 z m 88.3482,36.0368 21.7339,-1.9361 -1.2085,-13.5554 -20.4469,1.8218 c -4.0481,0.3608 -6.8021,1.1509 -8.2611,2.3893 -1.4381,1.2373 -2.0364,3.2151 -1.7959,5.9145 0.2077,2.3246 0.973,3.8671 2.2789,4.6712 1.3269,0.803 3.901,1.0336 7.6996,0.6947 z m -27.7141,-50.3614 35.5179,-3.1655 c 8.9687,-0.8001 15.898,0.654 20.8107,4.3591 4.9137,3.726 7.7214,9.6276 8.4429,17.7237 l 3.6644,41.123395 -46.6036,4.1534 c -6.5178,0.5804 -11.6879,-0.6122 -15.4885,-3.5789 -3.8025,-2.987595 -5.9612,-7.481895 -6.4989,-13.523595 -0.6659,-7.473 0.8717,-12.9879 4.6295,-16.6076 3.7379,-3.5968 10.2995,-5.8142 19.6627,-6.648 l 22.8123,-2.0335 -0.1451,-1.6409 c -0.3478,-3.9019 -1.7343,-6.5406 -4.1583,-7.9141 -2.445,-1.3726 -6.6043,-1.797 -12.4791,-1.2742 l -28.9594,2.5821 z m 77.0319,46.9266 36.5466,3.1376 c 3.239,0.2783 5.6492,-0.0169 7.2105,-0.9074 1.5614,-0.8915 2.4479,-2.4479 2.6398,-4.6891 0.1908,-2.2223 -0.4155,-3.9277 -1.8228,-5.0727 -1.4272,-1.1688 -3.729,-1.8883 -6.9263,-2.1626 l -14.9717,-1.2861 c -8.8663,-0.7613 -14.751,-2.6258 -17.6531,-5.6154 -2.8822,-2.9875 -4.0232,-7.9599 -3.4278,-14.8951 0.6062,-7.0605 2.9408,-12.0885 6.9859,-15.089 4.0639,-2.9975 10.041,-4.1583 17.9523,-3.4785 l 37.2313,3.1963 -1.1757,13.6836 -30.6063,-2.6268 c -4.9832,-0.4274 -8.26,-0.2703 -9.8512,0.4711 -1.5693,0.7444 -2.4519,2.2382 -2.6427,4.4595 -0.1749,2.0344 0.3618,3.5869 1.5882,4.6533 1.2473,1.0704 3.2828,1.7263 6.1063,1.9688 l 15.6982,1.3477 c 7.1847,0.6162 12.5218,2.769 15.9944,6.4344 3.4915,3.6683 4.9654,8.6685 4.4237,14.9806 -0.5228,6.0844 -2.6288,10.8819 -6.3001,14.415095 -3.6684,3.5133 -8.1518,5.0528 -13.4262,4.6006 l -44.7481,-3.8423 z m 65.1899,5.6303 14.8455,2.3276 -2.4201,15.441795 -14.8464,-2.3267 z m 57.1367,13.640795 17.7982,5.0727 -3.8671,13.5694 -22.7289,-6.4781 c -5.7525,-1.6389 -10.3104,-3.5879 -13.6627,-5.8221 -3.3643,-2.2581 -6.0427,-5.1035 -8.0096,-8.5453 -2.1239,-3.726 -3.3971,-7.925095 -3.8731,-12.568495 -0.4751,-4.6423 -0.0607,-9.2917 1.2642,-13.942 1.3944,-4.8898 3.5173,-9.2261 6.3727,-13.0058 2.8554,-3.7817 6.1769,-6.6927 9.9745,-8.6874 3.5252,-1.8774 7.3407,-2.8703 11.4315,-3.0045 4.0649,-0.1202 8.9259,0.6142 14.5582,2.2203 l 22.7288,6.4771 -3.9009,13.6896 -17.7983,-5.0728 c -7.8565,-2.2391 -13.6776,-2.424 -17.4205,-0.5426 -3.7579,1.8546 -6.5884,6.161 -8.5086,12.8965 -1.1022,3.8681 -1.4142,7.2463 -0.9173,10.1394 0.4771,2.8892 1.778,5.4693 3.8781,7.759195 1.0465,1.1211 2.3405,2.0533 3.9138,2.8484 1.5773,0.7742 4.4983,1.78 8.767,2.9965 z m 42.8765,-4.1414 c -2.5423,5.7346 -3.1853,10.7845 -1.9171,15.1764 1.2473,4.3829 4.2915,7.6478 9.0929,9.7757 4.7447,2.103 9.2072,2.1666 13.3328,0.165 4.1434,-1.9937 7.4719,-5.8519 10.0142,-11.5876 2.5423,-5.7346 3.1655,-10.7924 1.8893,-15.1654 -1.295,-4.380995 -4.3471,-7.625995 -9.1297,-9.745895 -4.7626,-2.112 -9.2072,-2.1667 -13.3307,-0.165 -4.1067,2.0106 -7.4262,5.8499 -9.9517,11.546795 z m 47.2129,20.9289 c -4.1892,9.4497 -10.4098,15.72 -18.6649,18.809 -8.2342,3.0969 -17.2387,2.4797 -26.9945,-1.8446 -9.736,-4.3164 -16.2598,-10.5818 -19.5624,-18.816 -3.3026,-8.2352 -2.8544,-17.0647 1.3179,-26.476695 4.1891,-9.4497 10.4386,-15.73 18.7662,-18.8319 8.3287,-3.1018 17.361,-2.4946 27.0959,1.8208 9.6793,4.2906 16.1564,10.5589 19.4322,18.804 3.2569,8.237195 2.7987,17.085695 -1.3904,26.535395 z m 31.3864,-18.8915 51.9784,41.9523 c 7.5246,6.0725 11.7675,11.9344 12.7226,17.5527 0.9422,5.6353 -1.2493,11.7674 -6.5894,18.3846 l -26.2312,32.4996 -13.6389,-11.0071 24.8179,-30.7494 c 3.0373,-3.7628 4.4705,-6.7016 4.3174,-8.8345 -0.1829,-2.1299 -2.0335,-4.6145 -5.5865,-7.4818 l -7.5892,-6.1243 -32.2919,40.0083 -13.8337,-11.1652 32.2919,-40.0092 -15.8125,-12.7613 -32.2909,40.0082 -13.6398,-11.0081 z m 44.6327,108.6211 9.0631,11.9861 -12.4681,9.4268 -9.0631,-11.986 z m 86.8564,-3.6495 -20.6636,11.9752 7.5027,12.9471 c 3.3027,5.6979 5.2715,10.6752 5.9146,14.9031 0.6539,4.2458 0.1321,8.4986 -1.5843,12.7692 -1.4133,3.5889 -3.3821,6.8021 -5.9413,9.6585 -2.5602,2.8564 -5.7297,5.3679 -9.4985,7.5514 -9.1605,5.3093 -17.7396,7.0038 -25.7293,5.1075 -7.9996,-1.9172 -14.5174,-7.2205 -19.5852,-15.9665 l -16.8044,-28.9952 77.6641,-45.0074 z m -27.6505,28.3094 -5.3291,-9.1963 -32.4758,18.819 5.999,10.3511 c 3.3226,5.7337 6.8717,9.0721 10.6355,9.9984 3.7459,0.9362 8.5085,-0.2813 14.2789,-3.6247 5.9503,-3.4487 9.4636,-7.1946 10.5509,-11.2218 1.0585,-4.0341 -0.159,-9.0859 -3.6594,-15.1257 z m 36.1977,43.9052 8.10511,28.0938 c 1.8953,6.5685 2.0414,11.514 0.4422,14.8395 -1.6001,3.3254 -5.3649,5.8429 -11.25161,7.5414 l -10.5728,3.0502 -4.6046,-15.9595 8.1508,-2.3515 c 2.4618,-0.7107 3.9963,-1.631 4.5847,-2.755 0.5864,-1.1231 0.4293,-3.247 -0.4721,-6.3717 l -1.6926,-5.8669 -51.1624,14.761 -4.8243,-16.7199 z" />
</svg>
